<svg xmlns="http://www.w3.org/2000/svg" x="0px" y="0px" width="100" height="100" viewBox="0,0,256,256">
<g fill="#ffffff" fill-rule="nonzero" stroke="none" stroke-width="1" stroke-linecap="butt" stroke-linejoin="miter" stroke-miterlimit="10" stroke-dasharray="" stroke-dashoffset="0" font-family="none" font-weight="none" font-size="none" text-anchor="none" style="mix-blend-mode: normal"><g transform="scale(5.33333,5.33333)"><path d="M24,2.99805c-0.95784,0 -1.91565,0.33287 -2.68359,0.99609l-17.5293,15.13867c-0.0013,0.00065 -0.00261,0.0013 -0.00391,0.00195c-0.73112,0.63533 -0.91428,1.6465 -0.62109,2.43359c0.29319,0.7871 1.09765,1.43164 2.06836,1.43164h2.76953h28c0.36064,0.0051 0.69608,-0.18438 0.87789,-0.49587c0.18181,-0.3115 0.18181,-0.69676 0,-1.00825c-0.18181,-0.3115 -0.51725,-0.50097 -0.87789,-0.49587h-28h-2.76953c-0.14929,0 -0.16155,-0.04546 -0.19336,-0.13086c-0.03181,-0.0854 -0.05028,-0.12999 0.05859,-0.22461l17.52734,-15.13867c0.79611,-0.68755 1.95779,-0.68755 2.75391,0l6.96875,6.02148c0.29621,0.25617 0.71468,0.31588 1.07071,0.15278c0.35603,-0.16309 0.58412,-0.51899 0.58359,-0.9106v-4.76953h3v9.08984c-0.00044,0.29086 0.12575,0.5675 0.3457,0.75781l5.55859,4.79688c0.10888,0.09462 0.0904,0.13921 0.05859,0.22461c-0.03181,0.0854 -0.04407,0.13086 -0.19336,0.13086h-2.76953c-0.55226,0.00006 -0.99994,0.44774 -1,1v20c0,0.56503 -0.43497,1 -1,1h-7c-0.56503,0 -1,-0.43497 -1,-1v-10c0,-1.64545 -1.35455,-3 -3,-3h-6c-1.64545,0 -3,1.35455 -3,3v10c0,0.56503 -0.43497,1 -1,1h-7c-0.56503,0 -1,-0.43497 -1,-1v-16c0.0051,-0.36064 -0.18438,-0.69608 -0.49587,-0.87789c-0.3115,-0.18181 -0.69676,-0.18181 -1.00825,0c-0.3115,0.18181 -0.50097,0.51725 -0.49587,0.87789v16c0,1.64497 1.35503,3 3,3h7c1.64497,0 3,-1.35503 3,-3v-10c0,-0.55455 0.44545,-1 1,-1h6c0.55455,0 1,0.44545 1,1v10c0,1.64497 1.35503,3 3,3h7c1.64497,0 3,-1.35503 3,-3v-19h1.76953c0.97071,0 1.77517,-0.64454 2.06836,-1.43164c0.29319,-0.7871 0.11003,-1.79821 -0.62109,-2.43359c-0.0013,-0.00065 -0.0026,-0.00131 -0.00391,-0.00195l-5.21289,-4.5v-8.63281c0,-1.09545 -0.90454,-2 -2,-2h-3c-1.09546,0 -2,0.90455 -2,2v2.58594l-5.31641,-4.5918c-0.76794,-0.66322 -1.72576,-0.99609 -2.68359,-0.99609z"></path></g></g>
</svg>